<svg xmlns="http://www.w3.org/2000/svg" width="52" height="42"><path stroke-width="2" stroke="#FFF" opacity=".51" fill="none" d="M44.889 27.651c-1.07 1.555-2.539 2.868-4.408 3.94.151.357.305.684.463.981.159.298.347.585.566.86.218.275.388.491.508.647.121.156.316.376.588.658a17.292 17.292 0 0 1 .61.659l.101.111c.023.022.053.06.091.112a.935.935 0 0 1 .079.122l.056.111.046.134c.029.09.033.138.011.145-.023.007-.03.056-.023.145a.82.82 0 0 1-.294.491.685.685 0 0 1-.497.156 18.809 18.809 0 0 1-1.944-.358c-2.321-.595-4.416-1.546-6.285-2.856a22.991 22.991 0 0 1-3.979.357c-4.084 0-7.641-.982-10.67-2.946.874.06 1.537.089 1.989.089 2.427 0 4.755-.335 6.985-1.004 2.231-.67 4.221-1.629 5.969-2.879 1.884-1.368 3.331-2.946 4.34-4.732 1.011-1.784 1.515-3.674 1.515-5.667 0-1.147-.174-2.278-.52-3.393 1.944 1.056 3.482 2.381 4.612 3.972 1.13 1.592 1.696 3.304 1.696 5.134 0 1.786-.535 3.456-1.605 5.011zm-14.999-.826c-2.449 1.018-5.113 1.529-7.992 1.528-1.296 0-2.622-.12-3.979-.358-1.868 1.31-3.963 2.262-6.284 2.857a19.21 19.21 0 0 1-1.944.357h-.068a.717.717 0 0 1-.464-.178.741.741 0 0 1-.26-.469.452.452 0 0 1-.022-.144c0-.052.003-.101.011-.146a.475.475 0 0 1 .045-.133l.057-.111.079-.123c.053-.082.083-.119.09-.111.008.007.042-.03.102-.113.06-.081.091-.115.091-.1.075-.089.248-.275.52-.558.271-.282.467-.502.587-.658.121-.155.291-.371.509-.646.219-.276.407-.563.565-.86.158-.298.313-.625.464-.983-1.869-1.07-3.339-2.387-4.409-3.949-1.069-1.562-1.605-3.23-1.605-5 0-2.069.708-3.98 2.125-5.736 1.417-1.756 3.349-3.142 5.798-4.162S19.019 5.5 21.898 5.5c2.879 0 5.542.509 7.991 1.529s4.382 2.406 5.799 4.162c1.416 1.756 2.125 3.667 2.125 5.736 0 2.068-.709 3.979-2.125 5.736-1.417 1.755-3.35 3.142-5.798 4.162z"/></svg>