<svg 
 xmlns="http://www.w3.org/2000/svg"
 xmlns:xlink="http://www.w3.org/1999/xlink"
 width="41px" height="30px">
<path fill-rule="evenodd"  stroke-width="2px" stroke="rgb(255, 255, 255)" fill-opacity="0" opacity="0.51" fill="rgb(255, 255, 255)"
 d="M21.000,25.000 C14.563,25.000 8.900,21.062 5.889,14.934 C8.900,8.807 14.563,5.000 21.000,5.000 C27.437,5.000 32.987,8.807 35.998,14.934 C32.987,21.062 27.437,25.000 21.000,25.000 ZM20.943,8.522 C17.479,8.522 14.671,11.392 14.671,14.934 C14.671,18.476 17.479,21.346 20.943,21.346 C24.408,21.346 27.217,18.476 27.217,14.934 C27.217,11.392 24.408,8.522 20.943,8.522 ZM20.943,18.782 C18.865,18.782 17.180,17.059 17.180,14.934 C17.180,12.809 18.865,11.087 20.943,11.087 C23.022,11.087 24.707,12.809 24.707,14.934 C24.707,17.059 23.022,18.782 20.943,18.782 Z"/>
</svg>