<svg xmlns="http://www.w3.org/2000/svg" width="48" height="27"><path fill-rule="evenodd" fill="#FFF" d="M46.383 6.558a1.243 1.243 0 0 0-.817-.733 1.23 1.23 0 0 0-1.076.204c-2.2 1.662-6.153 2.821-10.796 3.478l-2.112-3.419a1.236 1.236 0 0 0-2.105 0l-.736 1.192.031-.062-3.719-6.025a1.235 1.235 0 0 0-2.105 0l-3.72 6.025.031.062-.736-1.192a1.236 1.236 0 0 0-2.105 0l-2.112 3.419C9.663 8.85 5.71 7.691 3.51 6.029a1.234 1.234 0 0 0-1.893.529C-.303 11.324-4.01 24.897 15.176 26.56c1.94.168 4.212-.116 6.116-.997a6.447 6.447 0 0 1 5.414-.001c1.905.882 4.177 1.166 6.118.998C52.01 24.897 48.303 11.324 46.383 6.558zM18.219 19.342a1.078 1.078 0 0 1-.624.554c-1.208.408-3.404.974-5.318.52-3.422-.812-4.248-3.241-4.439-4.592a1.076 1.076 0 0 1 .788-1.195c1.029-.27 2.868-.591 4.726-.124 3.262.82 4.467 2.779 4.908 3.999.099.274.084.575-.041.838zm21.944-3.519c-.191 1.352-1.018 3.781-4.44 4.592-1.914.455-4.11-.111-5.317-.519a1.084 1.084 0 0 1-.666-1.392c.441-1.22 1.646-3.179 4.908-3.999 1.858-.467 3.697-.146 4.726.124.526.137.865.652.789 1.194z"/></svg>