<svg xmlns="http://www.w3.org/2000/svg" width="62" height="52"><path fill-rule="evenodd" fill="#FFF" d="M56.5 15.677L42 16V4c0-2.892-2.092-4-5-4H5C2.092 0 0 1.551 0 4.443v19.286C0 26.621 2.091 28 5 28h3l4.387 6.265c.221.371.67.522 1.12.522.449 0 .822-.22 1.119-.522l3.874-5.586L20 29v11c0 2.891 2.091 5 5 5h18l4.373 5.659c.222.371.671.522 1.12.522.449 0 .822-.219 1.119-.522L53.5 45.18h3c2.909 0 5.499-2.165 5.499-5.056V20.837c.007-2.898-2.514-5.16-5.499-5.16zM17.838 26.25c-.449 0-.822.219-1.119.521l-3.281 4.3-3.282-4.3C9.935 26.401 9.449 26 9 26H5c-1.416 0-3-.592-3-2V4c0-1.408 1.584-2 3-2h32c1.416 0 3 1.269 3 2.676v19.002C40 25.086 39.416 26 38 26H18l-.162.25zM59.25 40.124C59.25 41.532 58.416 43 57 43h-4c-.449 0-.991-.136-1.288.166L48.5 47.68l-3.351-4.514c-.221-.371-.7-.166-1.149-.166H24c-1.416 0-2-1.412-2-2.821V28h15c1.043 0 3.185.522 4 0l10 .178c1.94 0 1.904-2.178 0-2.178h-9v-8l14.5.178c1.416 0 3.5 1.414 3.5 2.822v19l-.75.124zM52 35c0 .742-.254 1-1 1H30c-.746 0-1-.258-1-1 0-.741.254-1 1-1h21c.739-.007 1 .259 1 1zM32 19H11c-.75 0-1.008-.38-1.008-1.074 0-.694.258-.926 1.008-.926h21c.75 0 1.004.232 1.004.926C33.081 18.62 32.75 19 32 19zm-22-8c0-.698.245-1 1-1h12c.755 0 1 .302 1 1s-.245 1-1 1H11c-.755 0-1-.302-1-1z"/></svg>