<svg xmlns="http://www.w3.org/2000/svg" width="52" height="53"><path stroke-width="2" stroke="#FFF" opacity=".51" fill="none" d="M44.506 28.918c-1.305 0-2.509.119-2.509.119v8.967l-7.732-9.054S24.051 29 19 29c-2.652 0-2.99-2.293-2.99-3.04V8.023c0-1.013.069-3.016 3.097-3.016 5.967 0 19.107.031 24.925.031 1.342 0 2.968.601 2.968 3.006v17.694c0 2.533-.936 3.18-2.494 3.18zm-11.497 5.061l.001 4.417C33.01 40.312 32.325 40 31 40H18l-8 8v-7s-.273-.018-1.817-.018c-2.837 0-3.169-1.91-3.169-3.046 0-5.815.156-17.86.156-17.86s-.179-2.989 3.103-2.989C10.532 17.087 14 17 14 17v15h16s3.009-.442 3.009 1.979z"/></svg>