<svg 
 xmlns="http://www.w3.org/2000/svg"
 xmlns:xlink="http://www.w3.org/1999/xlink"
 width="23px" height="23px">
<path fill-rule="evenodd"  fill="rgb(255, 255, 255)"
 d="M22.584,14.752 L22.413,15.337 C22.182,16.134 21.350,16.591 20.555,16.360 L12.745,14.092 L10.478,21.897 C10.247,22.692 9.415,23.151 8.619,22.919 L8.032,22.749 C7.236,22.518 6.778,21.686 7.009,20.890 L9.276,13.084 L1.466,10.816 C0.670,10.585 0.212,9.753 0.443,8.958 L0.614,8.372 C0.845,7.576 1.677,7.118 2.472,7.349 L10.282,9.617 L12.549,1.812 C12.780,1.017 13.612,0.559 14.407,0.789 L14.995,0.960 C15.791,1.191 16.249,2.024 16.018,2.819 L13.751,10.625 L21.561,12.893 C22.357,13.124 22.815,13.956 22.584,14.752 Z"/>
</svg>