<svg xmlns="http://www.w3.org/2000/svg" width="38" height="32"><path fill-rule="evenodd" d="M9.71 15.183a7.408 7.408 0 0 0 1.965-.976l.075-.055c.089-.064.175-.128.259-.196l.112-.088c.072-.06.15-.127.227-.196l.049-.043.056-.049a8.1 8.1 0 0 0 .313-.305l.04-.043c.083-.087.166-.179.248-.272l.079-.094.024-.031c.062-.072.119-.145.175-.218l.027-.036.066-.088a6.15 6.15 0 0 0 .178-.251l.069-.104c.405-.617.72-1.296.935-2.01l.07-.229a7.91 7.91 0 0 0 .278-2.082 7.79 7.79 0 0 0-2.192-5.458C11.354.904 9.477.103 7.482.103c-.81 0-1.624.138-2.393.403l4.043 4.173c.419.434.649 1.01.649 1.625a2.32 2.32 0 0 1-.649 1.624L7.58 9.53a2.188 2.188 0 0 1-3.147 0L.392 5.355A8.026 8.026 0 0 0 0 7.826c0 2.06.774 3.998 2.186 5.453 1.413 1.456 3.293 2.261 5.29 2.261.691 0 1.384-.101 2.059-.299l.175-.058zm27.898-9.828L33.564 9.53a2.184 2.184 0 0 1-3.147 0l-1.55-1.601a2.325 2.325 0 0 1-.649-1.626c0-.614.23-1.191.648-1.624L32.91.506a7.4 7.4 0 0 0-2.395-.403c-1.996 0-3.871.802-5.28 2.257a7.795 7.795 0 0 0-2.192 5.459c0 .71.096 1.421.285 2.111l.061.199c.219.724.539 1.409.952 2.033l.028.042c.078.116.147.211.217.306.022.03.044.062.068.093.066.087.133.169.201.25l.083.099c.092.105.182.205.276.303l.002.003.02.022.024.024c.094.096.192.19.291.281l.046.043.051.044c.076.067.157.138.24.205l.055.044.038.031c.09.07.183.141.277.208l.004.002.031.023.041.031a7.344 7.344 0 0 0 1.951.967l.215.068c.65.19 1.337.289 2.025.289 1.997 0 3.875-.805 5.289-2.263C37.224 11.824 38 9.886 38 7.826a8.092 8.092 0 0 0-.392-2.471zm-7.975 20.85l-5.255-5.424-2.897 2.99-1.445 1.491 5.66 5.843 4.343-4.461-.417-.428.011-.011zM14.832 13.067l-.016.023-.053.079c-.066.097-.139.197-.211.295l-.028.037-.061.081c-.076.098-.153.19-.23.282l-.018.02c-.024.032-.05.062-.076.093-.109.124-.221.249-.337.37l-.055.054c-.11.109-.203.201-.299.291a7.353 7.353 0 0 1-.103.09l-.05.043-.027.024c-.065.059-.13.116-.198.171a3.056 3.056 0 0 1-.153.123c-.074.06-.158.125-.242.188l-.132.094c-.099.07-.199.138-.302.204l-.09.061c-.127.077-.253.154-.383.228a9.68 9.68 0 0 1-.523.273l2.376 2.453 4.343-4.481-2.376-2.452a9.253 9.253 0 0 1-.498.951l-.034.055c-.071.12-.146.234-.222.349l-.002.001zm11.922 3.123a8.64 8.64 0 0 1-.929-.516c-.027-.018-.044-.029-.063-.044a7.586 7.586 0 0 1-.327-.22l-.045-.032-.043-.033c-.1-.072-.2-.149-.297-.228l-.018-.013c-.032-.026-.065-.052-.095-.078a10.423 10.423 0 0 1-.26-.225l-.025-.023c-.032-.026-.062-.054-.094-.082-.101-.095-.199-.193-.297-.291l-.062-.06-.045-.05a11.352 11.352 0 0 1-.29-.316c-.025-.028-.048-.057-.071-.086l-.039-.047a7.251 7.251 0 0 1-.21-.258l-.101-.134a6.023 6.023 0 0 1-.206-.285l-.054-.08-.018-.027a7.908 7.908 0 0 1-.218-.341l-.019-.032-.001-.002-.017-.029a9.303 9.303 0 0 1-.497-.948l-4.4 4.54-3.976 4.104-6.076 6.268 4.323 4.483 6.095-6.269 2.978-3.073 5.397-5.573z"/></svg>