<svg 
 xmlns="http://www.w3.org/2000/svg"
 xmlns:xlink="http://www.w3.org/1999/xlink"
 width="31px" height="35px">
<path fill-rule="evenodd"  stroke-width="2px" stroke="rgb(255, 255, 255)" fill-opacity="0" opacity="0.51" fill="rgb(255, 255, 255)"
 d="M15.498,17.995 C18.900,17.995 21.658,15.263 21.658,11.893 C21.658,8.523 18.900,5.791 15.498,5.791 C12.096,5.791 9.337,8.523 9.337,11.894 C9.337,15.263 12.096,17.995 15.498,17.995 ZM18.000,19.000 L13.000,19.000 C8.651,19.000 4.997,21.916 4.997,26.224 L4.997,27.854 L5.013,27.953 L5.454,28.090 C9.604,29.374 13.032,30.000 16.000,30.000 C21.797,30.000 25.334,28.165 25.542,28.061 L25.953,27.854 L25.997,27.854 L25.997,26.224 C25.998,21.916 22.349,19.000 18.000,19.000 Z"/>
</svg>