<svg xmlns="http://www.w3.org/2000/svg" width="45" height="53"><path fill-rule="evenodd" fill="#FBFBFB" d="M44.468 46.771a1.455 1.455 0 0 1-.568.685C43.572 47.663 35.145 53 22 53 8.855 53 1.569 47.674 1.241 47.456a1.394 1.394 0 0 1-.568-.685c-.58-1.456-.569-4.359-.558-4.925v-.033c.011-.086.011-.174.011-.272.066-2.141.208-7.175 4.95-8.795.033-.011.066-.022.109-.033 4.95-1.25 9.026-4.077 9.07-4.11a1.479 1.479 0 0 1 2.054.359c.47.663.306 1.576-.36 2.044-.186.12-4.535 3.143-9.977 4.534-2.546.903-2.83 3.61-2.906 6.089 0 .098-.011.184-.011.271-.022.979.054 2.491.229 3.36C5.065 46.261 12.488 50 23 50c10.555 0 17.053-3.729 18.824-4.729.174-.869.24-2.381.229-3.36-.011-.087-.011-.174-.011-.272-.076-2.479-.36-5.186-2.906-6.088-5.442-1.392-9.791-4.404-9.977-4.534a1.462 1.462 0 0 1-.36-2.044 1.477 1.477 0 0 1 2.054-.359c.044.033 4.141 2.86 9.069 4.11.033.011.077.022.11.033 4.742 1.609 4.884 6.643 4.949 8.795 0 .098.011.185.011.272v.033c.011.565.022 3.468-.524 4.914zM23.184 28.003h-.355c-3.253-.05-6.258-.737-8.159-2.879-4.207-4.718-3.507-12.808-3.431-13.58.273-5.839 3.071-8.611 5.365-9.905C18.888.345 21.22-.007 22.451-.007h.188c2.241.045 4.215.722 5.908 1.69 2.273 1.293 5.027 4.066 5.3 9.861.076.772.776 8.862-3.431 13.58-1.912 2.142-3.98 2.829-7.232 2.879zm7.734-16.187c-.01-.022-.01-.055-.01-.087-.339-7.372-5.341-8.61-8.335-8.678h-.133c-2.418 0-7.912.882-8.273 8.678 0 .022-.01.054-.01.087-.011.065-.754 7.492 2.709 11.362 1.366 1.543 3.241 2.807 5.572 2.826h.106c2.342-.019 4.299-1.283 5.676-2.826 3.474-3.893 2.709-11.286 2.698-11.362z"/></svg>