<svg 
 xmlns="http://www.w3.org/2000/svg"
 xmlns:xlink="http://www.w3.org/1999/xlink"
 width="1606px" height="987px">
<defs>
<linearGradient id="PSgrad_0" x1="50%" x2="0%" y1="86.603%" y2="0%">
  <stop offset="0%" stop-color="rgb(148,62,199)" stop-opacity="1" />
  <stop offset="100%" stop-color="rgb(60,55,191)" stop-opacity="1" />
</linearGradient>

</defs>
<path fill-rule="evenodd"  fill="rgb(102, 67, 236)"
 d="M0.000,680.965 C0.000,680.965 77.746,815.834 219.000,795.459 C344.515,777.355 423.477,785.355 513.000,854.956 C551.003,884.502 732.349,1050.646 1004.000,960.451 C1110.082,925.229 1132.889,839.507 1332.000,824.458 C1522.249,810.079 1606.000,673.465 1606.000,673.465 L1606.000,-0.000 L0.000,-0.000 L0.000,680.965 Z"/>
<path fill="url(#PSgrad_0)"
 d="M0.000,680.965 C0.000,680.965 77.746,815.834 219.000,795.459 C344.515,777.355 423.477,785.355 513.000,854.956 C551.003,884.502 732.349,1050.646 1004.000,960.451 C1110.082,925.229 1132.889,839.507 1332.000,824.458 C1522.249,810.079 1606.000,673.465 1606.000,673.465 L1606.000,-0.000 L0.000,-0.000 L0.000,680.965 Z"/>
</svg>